<svg xmlns="http://www.w3.org/2000/svg" xmlns:xlink="http://www.w3.org/1999/xlink" version="1.1" id="Layer_1" x="0px" y="0px" width="32px" height="32px" viewBox="0 0 32 32" enable-background="new 0 0 32 32" xml:space="preserve">
<path id="timeforward" d="M17.501,16l-0.5-7.876c0-0.552-0.448-1-1-1s-1,0.448-1,1l-0.466,7.343l-3.004,1.96  c-0.478,0.277-0.642,0.89-0.365,1.365c0.275,0.479,0.889,0.644,1.365,0.367l3.305-1.677c0.054,0.008,0.108,0.018,0.165,0.018  C16.83,17.501,17.501,16.83,17.501,16z M19.439,21.956c-0.479,0.277-0.646,0.889-0.366,1.367c0.274,0.477,0.888,0.643,1.366,0.365  c0.478-0.275,0.642-0.896,0.365-1.365C20.527,21.845,19.917,21.681,19.439,21.956z M20.438,8.313  c-0.477-0.276-1.09-0.111-1.354,0.366c-0.271,0.48-0.107,1.091,0.355,1.367c0.479,0.276,1.088,0.112,1.365-0.366  C21.081,9.203,20.918,8.589,20.438,8.313z M22.323,20.806c0.477,0.274,1.089,0.112,1.364-0.365c0.271-0.479,0.104-1.092-0.364-1.354  c-0.48-0.271-1.093-0.107-1.367,0.354C21.682,19.917,21.844,20.53,22.323,20.806z M23.322,12.928  c0.478-0.275,0.643-0.888,0.365-1.366c-0.274-0.478-0.896-0.642-1.365-0.366c-0.479,0.278-0.643,0.89-0.366,1.367  S22.844,13.206,23.322,12.928z M24.878,16c0-0.551-0.448-1-1-1c-0.554,0.002-1.001,0.45-1.001,1c0.001,0.552,0.448,1,1.001,1  C24.43,17.001,24.878,16.553,24.878,16z M10.046,12.562c0.275-0.478,0.111-1.089-0.366-1.366c-0.479-0.276-1.09-0.112-1.366,0.366  s-0.111,1.09,0.365,1.366C9.159,13.205,9.77,13.042,10.046,12.562z M7.125,16c0,0.553,0.449,1,1,1c0.552,0,1-0.448,1.001-1  c-0.001-0.552-0.448-0.999-1.001-1C7.571,15,7.125,15.449,7.125,16z M9.68,20.806c0.479-0.271,0.643-0.888,0.367-1.367  c-0.276-0.477-0.888-0.641-1.367-0.354c-0.478,0.271-0.642,0.891-0.365,1.355C8.589,20.919,9.204,21.081,9.68,20.806z   M12.562,10.045c0.479-0.276,0.642-0.888,0.366-1.366c-0.276-0.478-0.888-0.642-1.366-0.366S10.92,9.202,11.196,9.68  C11.474,10.159,12.084,10.323,12.562,10.045z M15.001,23.878c0,0.553,0.448,1,1,1s1-0.447,1-1s-0.448-1-1-1  S15.001,23.325,15.001,23.878z M11.196,22.323c-0.275,0.479-0.111,1.09,0.366,1.365c0.478,0.271,1.091,0.104,1.365-0.365  c0.277-0.479,0.113-1.09-0.365-1.367C12.084,21.681,11.474,21.845,11.196,22.323z M29.174,14.587l-3.27-1.186  c0.291,1.105,0.41,2.274,0.309,3.478c-0.492,5.639-5.449,9.809-11.09,9.333c-5.639-0.495-9.809-5.45-9.333-11.09  c0.494-5.641,5.449-9.812,11.089-9.335C19.307,6,21.445,7.053,23.072,8.621l-1.637,1.377l7.021,2.548l-1.312-7.364L25.38,6.673  c-2.133-2.151-4.993-3.597-8.25-3.877C9.847,2.17,3.426,7.573,2.797,14.865c-0.625,7.291,4.777,13.71,12.066,14.339  c7.293,0.625,13.713-4.776,14.342-12.066C29.279,16.271,29.262,15.419,29.174,14.587z"/>
</svg>