<?xml version="1.0" encoding="UTF-8" standalone="no"?>
<!-- Created with Inkscape (http://www.inkscape.org/) -->

<svg
   xmlns:dc="http://purl.org/dc/elements/1.1/"
   xmlns:cc="http://creativecommons.org/ns#"
   xmlns:rdf="http://www.w3.org/1999/02/22-rdf-syntax-ns#"
   xmlns:svg="http://www.w3.org/2000/svg"
   xmlns="http://www.w3.org/2000/svg"
   version="1.0"
   width="100"
   height="55.02"
   viewBox="0 0 100 55.02"
   id="Layer_1"
   xml:space="preserve"><metadata
     id="metadata11"><rdf:RDF><cc:Work
         rdf:about=""><dc:format>image/svg+xml</dc:format><dc:type
           rdf:resource="http://purl.org/dc/dcmitype/StillImage" /><dc:title></dc:title></cc:Work></rdf:RDF></metadata><defs
     id="defs9" /><path
     d="M 99.431,26.647 C 88.421,9.962 69.942,0 50.006,0 30.073,0 11.593,9.962 0.569,26.647 L 0,27.51 0.569,28.37 c 11.014,16.688 29.497,26.65 49.437,26.65 19.936,0 38.415,-9.962 49.425,-26.655 L 100,27.51 z M 8.034,27.51 C 16.156,16.256 26.065,8.685 39.415,6.034 c -2.232,1.128 -4.299,2.609 -6.115,4.42 -4.543,4.54 -7.046,10.578 -7.046,16.994 0,6.42 2.503,12.461 7.046,16.999 1.928,1.922 4.128,3.457 6.505,4.612 C 26.301,46.479 16.236,38.871 8.034,27.51 z M 50.253,43.954123 C 42.068,43.954123 34.122502,35.676 34.122502,27.496 34.566052,19.050984 42.608549,11.477403 50.253,11.364502 58.696708,11.808166 66.272345,19.852223 66.385498,27.496 65.941967,35.939177 57.900639,43.840717 50.253,43.954123 z M 61.158,48.879 c 2.24,-1.135 4.304,-2.61 6.129,-4.432 4.536,-4.538 7.041,-10.579 7.041,-16.999 0,-9.212 -5.226,-17.224 -12.856,-21.25 12.996,2.801 22.56,10.305 30.497,21.312 -8.003,11.092 -17.684,18.616 -30.811,21.369 z"
     id="path3"
     style="fill:#ffffff" /><path
     d="m 45.106,28.331 c 2.706,0 4.903,-2.193 4.903,-4.903 0,-2.71 -2.197,-4.906 -4.903,-4.906 -2.709,0 -4.903,2.196 -4.903,4.906 10e-4,2.71 2.194,4.903 4.903,4.903"
     id="path5"
     style="fill:#ffffff" /></svg>