<svg xmlns="http://www.w3.org/2000/svg" xmlns:xlink="http://www.w3.org/1999/xlink" width="100px" height="100px" viewBox="0 0 100 100" version="1.1">
  <!--Eye by Cole Townsend from The Noun Project-->
  <path d="M50,79 C25.147185,79 5.58444147,50.8058934 5.58444147,50.8058934 C5.2620127,50.3666672 5.26166336,49.6391892 5.58444147,49.1941066 C5.58444147,49.1941066 25.147185,21 50,21 C74.852815,21 94.4155585,49.1941066 94.4155585,49.1941066 C94.7379873,49.6333328 94.7383366,50.3608108 94.4155585,50.8058934 C94.4155585,50.8058934 74.852815,79 50,79 Z M50,67.4 C59.3198056,67.4 66.875,59.6097551 66.875,50 C66.875,40.3902449 59.3198056,32.6 50,32.6 C40.6801944,32.6 33.125,40.3902449 33.125,50 C33.125,59.6097551 40.6801944,67.4 50,67.4 Z M50,67.4 M50,55.8 C53.1066019,55.8 55.625,53.2032517 55.625,50 C55.625,46.7967483 53.1066019,44.2 50,44.2 C46.8933981,44.2 44.375,46.7967483 44.375,50 C44.375,53.2032517 46.8933981,55.8 50,55.8 Z M50,55.8" fill="#ffffff" />
</svg>
