<?xml version="1.0" encoding="utf-8"?>
<!-- Generator: Adobe Illustrator 14.0.0, SVG Export Plug-In . SVG Version: 6.00 Build 43363)  -->
<!DOCTYPE svg PUBLIC "-//W3C//DTD SVG 1.0//EN" "http://www.w3.org/TR/2001/REC-SVG-20010904/DTD/svg10.dtd">
<svg version="1.0" id="Layer_1" xmlns="http://www.w3.org/2000/svg" xmlns:xlink="http://www.w3.org/1999/xlink" x="0px" y="0px"
	 width="100px" height="55.02px" viewBox="0 0 100 55.02" enable-background="new 0 0 100 55.02" xml:space="preserve">
<path d="M99.431,26.647C88.421,9.962,69.942,0,50.006,0C30.073,0,11.593,9.962,0.569,26.647L0,27.51l0.569,0.86
	c11.014,16.688,29.497,26.65,49.437,26.65c19.936,0,38.415-9.962,49.425-26.655L100,27.51L99.431,26.647z M6.034,27.51
	C14.156,16.256,26.065,8.685,39.415,6.034c-2.232,1.128-4.299,2.609-6.115,4.42c-4.543,4.54-7.046,10.578-7.046,16.994
	c0,6.42,2.503,12.461,7.046,16.999c1.928,1.922,4.128,3.457,6.505,4.612C26.301,46.479,14.236,38.871,6.034,27.51z M50.253,42.336
	c-8.185,0-14.836-6.66-14.836-14.84c0-3.963,1.546-7.685,4.34-10.494c2.803-2.803,6.53-4.343,10.496-4.343
	c3.959,0,7.687,1.54,10.494,4.343c2.801,2.809,4.344,6.53,4.344,10.494c0,3.963-1.543,7.691-4.344,10.497
	C57.94,40.792,54.212,42.336,50.253,42.336z M61.158,48.879c2.24-1.135,4.304-2.61,6.129-4.432
	c4.536-4.538,7.041-10.579,7.041-16.999c0-9.212-5.226-17.224-12.856-21.25c12.996,2.801,24.56,10.305,32.497,21.312
	C85.966,38.602,74.285,46.126,61.158,48.879z"/>
<path d="M45.106,28.331c2.706,0,4.903-2.193,4.903-4.903c0-2.71-2.197-4.906-4.903-4.906c-2.709,0-4.903,2.196-4.903,4.906
	C40.204,26.138,42.397,28.331,45.106,28.331"/>
</svg>
