<?xml version="1.0" encoding="UTF-8" standalone="no"?>
<svg xmlns:dc="http://purl.org/dc/elements/1.1/" xmlns:cc="http://creativecommons.org/ns#" xmlns:rdf="http://www.w3.org/1999/02/22-rdf-syntax-ns#" xmlns:svg="http://www.w3.org/2000/svg" xmlns="http://www.w3.org/2000/svg" version="1.1" x="0px" y="0px" width="60px" height="60px" viewBox="0 0 60 60" enable-background="new 0 0 60 60">
<path d="M54.033,45.669v-1.823v-0.939V12.685c0-1.464-1.186-2.652-2.652-2.652H8.95c-1.464,0-2.652,1.188-2.652,2.652v30.221v0.939 v1.823L0,51.967h60L54.033,45.669z M10.11,14.177h40.111v27.68H10.11V14.177z M8.895,46h42.873l3.675,4.061H4.89L8.895,46z"/>
<g>
<rect x="8.94" y="46.504" width="1.285" height="1.284"/><rect x="8.96" y="48.265" width="1.285" height="1.284"/><rect x="7.262" y="48.265" width="1.285" height="1.284"/><rect x="10.701" y="46.504" width="1.284" height="1.284"/><rect x="10.722" y="48.265" width="1.285" height="1.284"/><rect x="12.42" y="46.504" width="1.285" height="1.284"/><rect x="12.441" y="48.265" width="1.284" height="1.284"/><rect x="14.182" y="46.504" width="1.285" height="1.284"/><rect x="14.202" y="48.265" width="1.285" height="1.284"/><rect x="15.818" y="46.504" width="1.285" height="1.284"/><rect x="15.839" y="48.265" width="1.285" height="1.284"/><rect x="17.58" y="46.504" width="1.284" height="1.284"/><rect x="17.6" y="48.265" width="1.285" height="1.284"/><rect x="19.299" y="46.504" width="1.285" height="1.284"/><rect x="19.32" y="48.265" width="1.285" height="1.284"/><rect x="21.06" y="46.504" width="1.285" height="1.284"/><rect x="21.081" y="48.265" width="1.285" height="1.284"/><rect x="22.78" y="46.504" width="1.285" height="1.284"/><rect x="22.8" y="48.265" width="1.285" height="1.284"/><rect x="24.541" y="46.504" width="1.285" height="1.284"/><rect x="24.562" y="48.265" width="1.285" height="1.284"/><rect x="26.26" y="46.504" width="1.285" height="1.284"/><rect x="26.281" y="48.265" width="1.284" height="1.284"/><rect x="28.021" y="46.504" width="1.285" height="1.284"/><rect x="28.042" y="48.265" width="1.285" height="1.284"/><rect x="29.658" y="46.504" width="1.285" height="1.284"/><rect x="29.679" y="48.265" width="1.285" height="1.284"/><rect x="31.419" y="46.504" width="1.284" height="1.284"/><rect x="31.44" y="48.265" width="1.285" height="1.284"/><rect x="33.139" y="46.504" width="1.285" height="1.284"/><rect x="33.16" y="48.265" width="1.284" height="1.284"/><rect x="34.9" y="46.504" width="1.285" height="1.284"/><rect x="34.92" y="48.265" width="1.285" height="1.284"/><rect x="36.661" y="46.504" width="1.284" height="1.284"/><rect x="36.682" y="48.265" width="1.285" height="1.284"/><rect x="38.422" y="46.504" width="1.285" height="1.284"/><rect x="38.443" y="48.265" width="1.284" height="1.284"/><rect x="40.142" y="46.504" width="1.285" height="1.284"/><rect x="40.162" y="48.265" width="1.285" height="1.284"/><rect x="41.903" y="46.504" width="1.284" height="1.284"/><rect x="41.923" y="48.265" width="1.285" height="1.284"/><rect x="43.54" y="46.504" width="1.284" height="1.284"/><rect x="43.56" y="48.265" width="1.285" height="1.284"/><rect x="45.3" y="46.504" width="1.285" height="1.284"/><rect x="45.321" y="48.265" width="1.284" height="1.284"/><rect x="47.02" y="46.504" width="1.285" height="1.284"/><rect x="47.041" y="48.265" width="1.285" height="1.284"/><rect x="48.781" y="46.504" width="1.284" height="1.284"/><rect x="48.802" y="48.265" width="1.285" height="1.284"/><rect x="50.397" y="46.504" width="1.285" height="1.284"/><rect x="50.418" y="48.265" width="1.284" height="1.284"/><rect x="52.034" y="48.265" width="1.285" height="1.284"/>
</g>
</svg>
