<?xml version="1.0" encoding="UTF-8" standalone="no"?>
<svg xmlns:svg="http://www.w3.org/2000/svg" xmlns="http://www.w3.org/2000/svg" version="1.1" x="0px" y="0px" width="100px" height="100px" viewBox="0 0 100 100" enable-background="new 0 0 100 100">
    <path d="M63.375,9.688H36.623c-5.411,0-9.794,4.463-9.794,9.967v60.689c0,5.504,4.384,9.967,9.794,9.967h26.752 c5.412,0,9.797-4.463,9.797-9.967V19.656C73.172,14.152,68.787,9.688,63.375,9.688z M50.003,85.042 c-2.637,0-4.772-2.133-4.772-4.766s2.135-4.765,4.772-4.765c2.631,0,4.764,2.132,4.764,4.765S52.635,85.042,50.003,85.042z M67.133,71.519H32.868V20.766h34.265V71.519z" />
</svg> 
