<svg xmlns="http://www.w3.org/2000/svg" xmlns:xlink="http://www.w3.org/1999/xlink" version="1.1" id="Layer_1" x="0px" y="0px" width="100px" height="100px" viewBox="0 0 100 100" enable-background="new 0 0 100 100" xml:space="preserve">
<path d="M84.975,52.383l-11.027,3.593c0.053-2.602-0.304-5.349-0.607-6.735l9.588-3.117c5.178-1.704,7.607-8.572,5.401-15.32  c-1.809-5.534-6.432-9.549-11.015-9.549c-0.818,0-1.624,0.132-2.363,0.37L42.712,32.137c-4.913,1.598-7.383,7.911-5.653,14.396  c0.053,0.277,0.132,0.568,0.251,0.911c1.823,5.626,6.353,9.549,11.001,9.549c0.806,0,1.611-0.132,2.377-0.37l8.466-2.76  c0.29,3.553-1.097,6.907-3.474,7.673L49.58,63.53l-0.211,0.013c-8.254,0.555-15.519-5.362-18.345-14.025l-0.04-0.159  c-0.053-0.158-0.105-0.317-0.172-0.555c-0.964-3.275-1.162-6.722-0.581-9.984c1.136-6.353,5.032-11.2,10.434-12.956l32.238-10.526  c1.4-0.449,2.893-0.687,4.411-0.687c7.476,0,14.581,5.798,17.302,14.105C97.931,38.978,93.612,49.57,84.975,52.383z"/>
<path d="M69.534,48.856c0.66,3.275,2.139,8.162-0.568,14.014c-1.545,4.503-4.569,7.989-9.1,9.468l-10.209,3.328l-22.03,7.186  c-1.426,0.463-2.905,0.699-4.424,0.699c-7.475,0-14.581-5.811-17.288-14.117c-1.571-4.821-1.519-9.894,0.172-14.278  c1.77-4.556,5.217-7.95,9.456-9.336l10.804-3.513c-0.106,2.245,0.079,4.504,0.568,6.709c0,0.013,0,0.026,0.013,0.04l-9.351,3.024  c-3.236,1.07-4.728,3.883-5.31,5.441c-1.149,2.932-1.175,6.537-0.079,9.866c1.836,5.625,6.366,9.561,11.015,9.561  c0.819,0,1.611-0.131,2.377-0.383l21.276-6.854l3.145-0.965c1.241-0.41,6.379-1.994,6.379-1.994  c2.693-0.885,5.084-3.196,6.458-6.048c1.281-2.656,1.677-5.865,0.62-9.1c-0.065-0.291-0.145-0.557-0.237-0.859  c-1.836-5.626-6.366-9.549-11.028-9.549c-0.779,0-1.571,0.132-2.363,0.383l-8.915,2.918c-0.33-3.592,1.03-6.841,3.407-7.607  l6.881-2.258h0.026c0.317-0.026,0.647-0.04,0.964-0.04c7.476,0,14.594,5.798,17.288,14.092L69.534,48.856z"/>
</svg>