<svg xmlns="http://www.w3.org/2000/svg" xmlns:xlink="http://www.w3.org/1999/xlink" version="1.1" x="0px" y="0px" width="100px" height="100px" viewBox="0 0 100 100" enable-background="new 0 0 100 100" xml:space="preserve">
<path d="M95,79.999v-60c0-1.381-1.119-2.5-2.5-2.5h-85c-1.381,0-2.5,1.119-2.5,2.5v60c0,1.381,1.119,2.5,2.5,2.5h85  C93.881,82.499,95,81.38,95,79.999z M10,49.999c0-1.381,1.119-2.5,2.5-2.5s2.5,1.119,2.5,2.5c0,1.381-1.119,2.5-2.5,2.5  S10,51.38,10,49.999z M20,77.499v-55h70v55H20z"/>
</svg>
