<svg xmlns="http://www.w3.org/2000/svg" xmlns:xlink="http://www.w3.org/1999/xlink" version="1.1" x="0px" y="0px" width="100px" height="100px" viewBox="0 0 100 100" enable-background="new 0 0 100 100" xml:space="preserve">
<g id="Captions">
</g>
<g id="Your_Icon">
	<polygon points="95.103,61.634 62.683,94.055 18.44,49.811 17.457,54.427 62.683,99.651 97.901,64.433  "/>
	<path d="M52.773,8.012l-18.57,3.953C31.68,7.761,27.766,3.751,21.669,1.357C15.514-1.061,9.443-0.22,5.015,3.663   c-4.039,3.542-5.771,8.875-4.518,13.919c0.883,3.555,4.054,9.922,15.375,12.61l0.915-3.851c-6.877-1.634-11.297-5.083-12.447-9.714   c-0.894-3.6,0.365-7.427,3.286-9.989c3.276-2.874,7.869-3.455,12.598-1.598c14.519,5.703,14.582,22.499,14.576,23.211   c0,1.093,0.888,2.337,1.979,2.337c1.082,0,1.958-0.589,1.977-1.589H39c0,0,0-0.736,0-0.744c0-0.001,0-0.003,0-0.004   s0-0.003,0-0.004c0-0.383-0.141-2.745-0.783-5.966c0.981,0.197,1.857,0.663,2.62,1.425c2.078,2.079,2.048,5.448-0.031,7.526   c-2.078,2.079-5.462,2.079-7.541,0c-1.653-1.652-1.977-4.114-1.001-6.102c-0.653-3.35-2.093-7.791-5.194-11.647l-3.333,0.708   l-6.182,29.039L62.78,88.456l35.219-35.218L52.773,8.012z"/>
</g>
</svg>