<?xml version="1.0" encoding="UTF-8" standalone="no"?>
<!-- Created with Inkscape (http://www.inkscape.org/) -->

<svg
   xmlns:dc="http://purl.org/dc/elements/1.1/"
   xmlns:cc="http://creativecommons.org/ns#"
   xmlns:rdf="http://www.w3.org/1999/02/22-rdf-syntax-ns#"
   xmlns:svg="http://www.w3.org/2000/svg"
   xmlns="http://www.w3.org/2000/svg"
   version="1.0"
   width="100"
   height="55.02"
   viewBox="0 0 100 55.02"
   id="Layer_1"
   xml:space="preserve"><metadata
     id="metadata11"><rdf:RDF><cc:Work
         rdf:about=""><dc:format>image/svg+xml</dc:format><dc:type
           rdf:resource="http://purl.org/dc/dcmitype/StillImage" /><dc:title></dc:title></cc:Work></rdf:RDF></metadata><defs
     id="defs9" /><path
     d="M 94.801025,26.02008 C 84.892022,11.003575 68.260916,2.0377717 50.31851,2.0377717 c -17.939706,0 -34.571711,8.9658033 -44.4933149,23.9823083 l -0.5120998,0.7767 0.5120998,0.774 C 15.737799,42.589985 32.372504,51.555788 50.31851,51.555788 c 17.942406,0 34.573512,-8.965803 44.482515,-23.989508 l 0.5121,-0.7695 z m -82.257327,0.7767 C 19.8535,16.668177 28.771603,9.8542743 40.786607,7.4683735 c -2.008801,1.0152003 -3.869101,2.3481008 -5.503502,3.9780015 -4.088701,4.086001 -6.341402,9.520203 -6.341402,15.294605 0,5.778002 2.252701,11.214904 6.341402,15.299105 1.735201,1.729801 3.715201,3.111301 5.854502,4.150802 C 28.984003,43.868886 19.9255,37.021684 12.543698,26.79678 z M 50.54081,41.596496 c -7.366502,0 -14.517453,-7.450313 -14.517453,-14.812316 0.399195,-7.600517 7.637445,-14.416742 14.517453,-14.518353 7.59934,0.399298 14.417415,7.638952 14.519253,14.518353 -0.399178,7.598862 -7.636375,14.71025 -14.519253,14.812316 z m 9.814503,4.432391 c 2.016001,-1.021501 3.873602,-2.349001 5.516102,-3.988802 4.082402,-4.084201 6.336902,-9.521103 6.336902,-15.299105 0,-8.290803 -4.703401,-15.501605 -11.570403,-19.1250065 C 72.334317,10.136874 80.94192,16.890477 88.085223,26.79678 80.88252,36.779584 72.169617,43.551186 60.355313,46.028887 z"
     id="path3"
     style="fill:#f9f9f9" /><rect
     width="83.824081"
     height="6.8039021"
     x="-17.853802"
     y="48.52631"
     transform="matrix(0.80412436,-0.59446111,0.59446111,0.80412436,0,0)"
     id="rect3206"
     style="fill:#f9f9f9" /></svg>