<?xml version="1.0" encoding="UTF-8" standalone="no"?>
<svg
   xmlns:dc="http://purl.org/dc/elements/1.1/"
   xmlns:cc="http://creativecommons.org/ns#"
   xmlns:rdf="http://www.w3.org/1999/02/22-rdf-syntax-ns#"
   xmlns:svg="http://www.w3.org/2000/svg"
   xmlns="http://www.w3.org/2000/svg"
   width="16"
   height="16"
   id="svg2"
   version="1.1">
  <path
     style="fill:#ffffff;fill-opacity:1;stroke:none"
     d="m 2.0808619,2.631 c -2.97228777,3.269 -2.73173092,8.3286 0.5373351,11.3009 3.269066,2.9723 8.328653,2.7318 11.300941,-0.5373 2.972288,-3.269 2.731731,-8.3286 -0.537335,-11.3009 -3.269066,-2.9723 -8.3286534,-2.7318 -11.3009411,0.5373 z m 1.1098384,1.0091 c 2.2783896,-2.5059 6.0700427,-2.8132 8.7216437,-0.8129 l -8.7033843,9.5723 c -2.24278581,-2.4498 -2.29664897,-6.2535 -0.018259,-8.7594 z m 1.1491205,9.7454 8.6613392,-9.5261 c 2.038198,2.4526 2.014831,6.0991 -0.19186,8.5261 -2.206692,2.427 -5.8345176,2.7963 -8.4694792,1 z" />
</svg>
