<svg xmlns="http://www.w3.org/2000/svg" xmlns:xlink="http://www.w3.org/1999/xlink" width="17px" height="12px" viewBox="0 0 17 12" version="1.1">
    <!-- Closed Eye by Cole Townsend from The Noun Project -->
    <path d="M8.07190973,8.5 C12.5299026,8.5 16.1438195,4.5 16.1438195,4.5 C16.1438195,4.5 12.5299026,0.5 8.07190973,0.5 C3.61391687,0.5 0,4.5 0,4.5 C0,4.5 3.61391687,8.5 8.07190973,8.5 Z M8.07190973,8.5" fill="#000000" />
    <path d="M0.933012702,7.20594026 L0.933012702,9.20594026 L1.9330127,9.20594026 L1.9330127,7.20594026 L0.933012702,7.20594026 Z M0.933012702,7.20594026" transform="translate(1.433013, 8.205940) rotate(-325.000000) translate(-1.433013, -8.205940)" fill="#000000"/>
    <path d="M13.9330127,7.20594026 L13.9330127,9.20594026 L14.9330127,9.20594026 L14.9330127,7.20594026 L13.9330127,7.20594026 Z M13.9330127,7.20594026" transform="translate(14.433013, 8.205940) rotate(-35.000000) translate(-14.433013, -8.205940)" fill="#000000"/>
    <path d="M7.5,9.3 L7.5,11.3 L8.5,11.3 L8.5,9.3 L7.5,9.3 Z M7.5,9.3" fill="#000000"/>
    <path d="M10.9983274,8.70830265 L10.9983274,10.7083027 L11.9983274,10.7083027 L11.9983274,8.70830265 L10.9983274,8.70830265 Z M10.9983274,8.70830265" transform="translate(11.498327, 9.708303) rotate(-19.000000) translate(-11.498327, -9.708303)" fill="#000000"/>
    <path d="M4.14362173,8.71468634 L4.14362173,10.7146863 L5.14362173,10.7146863 L5.14362173,8.71468634 L4.14362173,8.71468634 Z M4.14362173,8.71468634" transform="translate(4.643622, 9.714686) rotate(-341.000000) translate(-4.643622, -9.714686)" fill="#000000"/>
</svg>
