<?xml version="1.0" encoding="UTF-8" standalone="no"?>
<svg
   xmlns:svg="http://www.w3.org/2000/svg"
   xmlns="http://www.w3.org/2000/svg"
   version="1.1"
   x="0px"
   y="0px"
   width="100px"
   height="100px"
   viewBox="0 0 100 100"
   enable-background="new 0 0 100 100"
   xml:space="preserve">
  <path
     style="fill:#000000;fill-opacity:1;stroke:#6d6d6d;stroke-width:0.44433764;stroke-linecap:round;stroke-linejoin:round;stroke-miterlimit:4;stroke-opacity:1"
     d="m 63.540641,51.694915 c 0,7.396147 -5.878201,13.391914 -13.129329,13.391914 -7.251128,0 -13.129329,-5.995767 -13.129329,-13.391914 0,-7.396151 5.878201,-13.391914 13.129329,-13.391914 7.251128,0 13.129329,5.995763 13.129329,13.391914 z m 35.1866,0 c 0,7.396147 -5.878201,13.391914 -13.129329,13.391914 -7.251128,0 -13.129329,-5.995767 -13.129329,-13.391914 0,-7.396151 5.878201,-13.391914 13.129329,-13.391914 7.251128,0 13.129329,5.995763 13.129329,13.391914 z m -70.897982,10e-7 c 0,7.396147 -5.8782,13.391915 -13.129329,13.391915 -7.2511278,0 -13.1293282,-5.995768 -13.1293282,-13.391915 0,-7.396151 5.8782004,-13.391914 13.1293282,-13.391914 7.251129,0 13.129329,5.995763 13.129329,13.391914 z" />
</svg>
